<svg xmlns="http://www.w3.org/2000/svg" fill="none" viewBox="0 0 126.06 30">
<path fill-rule="evenodd" clip-rule="evenodd" d="M0 27.2965C0 28.9363 1.06408 30 2.70357 30H10.6022C15.3144 30 19.1687 28.4056 21.7891 25.6145H0V27.2965ZM10.6022 0H2.70357C1.06408 0 0 1.06356 0 2.70334V4.3853H21.7891C19.1687 1.59431 15.3144 0 10.6022 0ZM17.4959 19.2751C17.4959 20.6017 18.3602 21.4622 19.6926 21.4622H24.4254C24.9621 20.1309 25.3224 18.6672 25.49 17.0877H19.6926C18.3602 17.0877 17.4959 17.9482 17.4959 19.2751ZM10.9355 10.737C10.9355 12.0637 11.7998 12.9242 13.1323 12.9242H25.4899C25.3223 11.3448 24.962 9.88108 24.4253 8.54975H13.1323C11.7998 8.54975 10.9355 9.41027 10.9355 10.737ZM13.1299 19.2751C13.1299 17.9482 12.2657 17.0877 10.9338 17.0877H0V21.4622H10.9338C12.2657 21.4622 13.1299 20.6017 13.1299 19.2751ZM6.56966 10.737C6.56966 9.41027 5.70539 8.54975 4.37352 8.54975H0V12.9242H4.37352C5.70539 12.9242 6.56966 12.0637 6.56966 10.737Z" fill="#0062FF"/>
<path fill-rule="evenodd" clip-rule="evenodd" d="M73.0971 14.9577C73.0983 14.9568 73.0989 14.9561 73.1001 14.9553C72.1807 14.3781 71.3018 14.1582 70.4457 13.9162C68.9996 13.5075 68.3264 13.2481 68.3264 12.616C68.3264 12.3992 68.4471 11.6528 69.7953 11.6528C70.5143 11.6528 70.9936 12.0018 71.2842 12.3276C71.5497 12.6247 71.9885 12.6911 72.3366 12.4966L73.4434 11.8775C73.9198 11.611 74.0376 10.9671 73.6714 10.5621C72.8833 9.69086 71.5696 8.88377 69.7713 8.88377C67.2177 8.88377 65.1482 10.2322 65.1482 12.7604C65.1482 15.849 68.6082 16.1528 70.3971 16.8298C71.2883 17.1669 71.3604 17.5657 71.3604 17.7824C71.3604 18.2504 70.9754 18.7802 69.7233 18.7802C68.6088 18.7802 67.9988 18.305 67.6754 17.8783C67.4158 17.5356 66.9453 17.4352 66.5703 17.645L65.4089 18.2942C64.9624 18.544 64.8277 19.1286 65.1271 19.5434C65.9374 20.6643 67.4134 21.5973 69.7713 21.5973C72.8774 21.5973 74.5386 19.96 74.5386 17.6002C74.5386 16.4325 73.9796 15.5477 73.0971 14.9577ZM126.059 11.4174V10.0115C126.059 9.57516 125.705 9.2216 125.269 9.2216H123.338V6.65784C123.338 6.21199 122.976 5.85057 122.53 5.85057H121.039C120.593 5.85057 120.231 6.21199 120.231 6.65784V9.2216H118.927C118.49 9.2216 118.137 9.57516 118.137 10.0115V11.4174C118.137 11.8536 118.49 12.2073 118.927 12.2073H120.231V17.2157C120.231 20.683 122.11 21.3572 124.421 21.3572C124.773 21.3572 125.074 21.3463 125.319 21.3316C125.735 21.3068 126.059 20.9601 126.059 20.5432V19.2587C126.059 18.813 125.69 18.4558 125.244 18.4695C124.289 18.4989 123.338 18.427 123.338 17.2157V12.2073H125.269C125.705 12.2073 126.059 11.8536 126.059 11.4174ZM110.654 18.6124C108.571 18.6124 107.319 17.0924 107.319 15.2173C107.319 13.3422 108.595 11.8222 110.654 11.8222C112.713 11.8222 113.989 13.3422 113.989 15.2173C113.989 17.0924 112.737 18.6124 110.654 18.6124ZM111.052 8.86082C109.479 8.86082 108.213 9.51743 107.32 10.5887V10.0572C107.32 9.58259 106.935 9.19785 106.461 9.19785H105.073C104.598 9.19785 104.213 9.58259 104.213 10.0572V25.1936C104.213 25.6682 104.598 26.053 105.073 26.053H106.461C106.935 26.053 107.32 25.6682 107.32 25.1936V19.8464C108.213 20.9177 109.479 21.5743 111.052 21.5743C114.592 21.5743 117.096 18.7283 117.096 15.2175C117.096 11.7068 114.568 8.86082 111.052 8.86082ZM54.4022 14.1097C54.7678 12.4974 55.9473 11.6777 57.4983 11.6777C59.0359 11.6777 60.1603 12.5342 60.5189 14.1097H54.4022ZM57.5845 8.88377C53.6358 8.88377 51.1795 11.7539 51.1795 15.2647C51.1795 18.9005 53.8046 21.5973 57.7052 21.5973C59.8451 21.5973 61.3153 20.8812 62.336 19.8709C62.7339 19.4766 62.6378 18.8079 62.1532 18.5265L61.0973 17.913C60.785 17.7316 60.3936 17.7656 60.1164 17.9967C59.4982 18.5112 58.6732 18.7802 57.8013 18.7802C56.03 18.7802 54.844 18.0256 54.4397 16.5167H61.068C61.0674 16.5187 61.0668 16.5207 61.0662 16.5226L62.6354 16.5311C63.1587 16.5339 63.5876 16.1248 63.6186 15.6023C63.6251 15.4926 63.6286 15.3803 63.6286 15.2647C63.6286 12.2066 61.5579 8.88377 57.5845 8.88377ZM82.2606 18.5623C80.3686 18.5623 79.0461 17.0853 79.0461 15.2636C79.0461 13.4416 80.3809 11.9647 82.2606 11.9647C83.2532 11.9647 84.0741 12.3475 84.6273 12.996C84.895 13.3098 85.3527 13.3798 85.7083 13.1708L86.9043 12.4676C87.3601 12.1998 87.4679 11.5883 87.1328 11.1794C86.0066 9.8051 84.2962 8.90672 82.2606 8.90672C78.5645 8.90672 75.94 11.7528 75.94 15.2636C75.94 18.7742 78.5404 21.6203 82.2606 21.6203C84.3284 21.6203 86.0505 20.7051 87.172 19.3091C87.5037 18.8965 87.39 18.2854 86.9306 18.0221L85.7382 17.3382C85.382 17.134 84.9261 17.2064 84.6624 17.5212C84.1105 18.179 83.2784 18.5623 82.2606 18.5623ZM92.4525 11.2787V10.0816C92.4525 9.60696 92.0675 9.22228 91.5929 9.22228H90.206C89.7314 9.22228 89.3464 9.60696 89.3464 10.0816V20.4023C89.3464 20.8769 89.7314 21.2616 90.206 21.2616H91.5929C92.0675 21.2616 92.4525 20.8769 92.4525 20.4023V15.8442C92.4537 15.846 92.4543 15.848 92.4549 15.8499C92.4056 13.6387 93.5863 12.5407 95.3219 12.4332C95.769 12.4055 96.1123 12.0246 96.1123 11.5769V9.92501C96.1123 9.38553 95.6196 8.97238 95.091 9.08013C93.8131 9.341 92.933 10.1092 92.4525 11.2787ZM99.7958 3.94727C98.7452 3.94727 97.8932 4.79888 97.8932 5.84955C97.8932 6.90004 98.7452 7.75172 99.7958 7.75172C100.846 7.75172 101.698 6.90004 101.698 5.84955C101.698 4.79888 100.846 3.94727 99.7958 3.94727ZM99.1023 21.2605H100.49C100.964 21.2605 101.349 20.8757 101.349 20.4011V10.0804C101.349 9.60581 100.964 9.22114 100.49 9.22114H99.1023C98.6276 9.22114 98.2427 9.60581 98.2427 10.0804V20.4011C98.2427 20.8757 98.6276 21.2605 99.1023 21.2605ZM42.4978 18.6124C40.4147 18.6124 39.1631 17.0924 39.1631 15.2173C39.1631 13.3422 40.4393 11.8222 42.4978 11.8222C44.5568 11.8222 45.833 13.3422 45.833 15.2173C45.833 17.0924 44.5808 18.6124 42.4978 18.6124ZM45.8326 10.5882C44.9396 9.51692 43.6728 8.86031 42.1001 8.86031C38.5844 8.86031 36.0566 11.7063 36.0566 15.217C36.0566 18.7277 38.5604 21.5738 42.1001 21.5738C43.6728 21.5738 44.9396 20.9171 45.8326 19.8459V20.4015C45.8326 20.8761 46.217 21.2608 46.6916 21.2608H48.0791C48.5538 21.2608 48.9387 20.8761 48.9387 20.4015V5.2651C48.9387 4.79048 48.5538 4.40575 48.0791 4.40575H46.6916C46.217 4.40575 45.8326 4.79048 45.8326 5.2651V10.5882Z" fill="#1A1A1A"/>
</svg>