<svg width="38" height="38" viewBox="0 0 38 38" fill="none" xmlns="http://www.w3.org/2000/svg">
<path d="M29.3413 9.65009L24.6605 14.3316L20.8841 7.79083C20.2755 6.73639 18.7558 6.73639 18.1472 7.79083L14.3527 14.3646L9.65872 9.65833C8.67776 8.67556 7 9.36918 7 10.7589V28.8285C7 30.5815 8.41831 32 10.1694 32H28.829C30.58 32 32 30.5815 32 28.8285V10.7498C32 9.36259 30.3222 8.66897 29.3413 9.65009ZM15.5214 23.366C14.6887 23.366 14.015 22.6905 14.015 21.8577C14.015 21.0265 14.6887 20.351 15.5214 20.351C16.3541 20.351 17.0278 21.0265 17.0278 21.8577C17.0278 22.6905 16.3533 23.366 15.5214 23.366ZM23.4448 23.3578C22.6121 23.3578 21.9367 22.6823 21.9367 21.8494C21.9367 21.0182 22.6121 20.3427 23.4448 20.3427C24.2759 20.3427 24.9513 21.0182 24.9513 21.8494C24.9513 22.6823 24.2751 23.3578 23.4448 23.3578Z" fill="#08C18A"/>
</svg>
